<svg width="501" height="135" viewBox="0 0 501 135" fill="none" xmlns="http://www.w3.org/2000/svg"><path d="M133 66C134.5 112.5 116 161.5 47.5 109" stroke="#1486AD" stroke-width="3" stroke-linecap="round"/><path d="M67 2.08301C113.5 0.583006 162.5 19.083 110 87.583" stroke="#1486AD" stroke-width="3" stroke-linecap="round"/><path d="M2.08203 67.6631C0.582027 21.1631 19.082 -27.8369 87.582 24.6631" stroke="#1486AD" stroke-width="3" stroke-linecap="round"/><path d="M68.2031 132.62C21.7031 134.12 -27.2969 115.62 25.2031 47.1201" stroke="#1486AD" stroke-width="3" stroke-linecap="round"/><path d="M201.456 76.4C201.456 74.0533 201.236 71.8166 200.796 69.69C200.356 67.49 199.586 65.5833 198.486 63.97C197.459 62.2833 196.103 60.9266 194.416 59.9C192.729 58.8733 190.603 58.36 188.036 58.36C185.469 58.36 183.306 58.8733 181.546 59.9C179.786 60.9266 178.356 62.2833 177.256 63.97C176.229 65.6566 175.459 67.6 174.946 69.8C174.506 71.9266 174.286 74.1633 174.286 76.51C174.286 78.71 174.543 80.91 175.056 83.11C175.569 85.31 176.376 87.29 177.476 89.05C178.649 90.7366 180.079 92.13 181.766 93.23C183.526 94.2566 185.616 94.77 188.036 94.77C190.603 94.77 192.729 94.2566 194.416 93.23C196.176 92.2033 197.569 90.8466 198.596 89.16C199.623 87.4 200.356 85.42 200.796 83.22C201.236 81.02 201.456 78.7466 201.456 76.4ZM201.676 97.74H201.456C199.623 100.82 197.203 103.057 194.196 104.45C191.263 105.77 187.926 106.43 184.186 106.43C179.933 106.43 176.193 105.623 172.966 104.01C169.739 102.323 167.063 100.087 164.936 97.3C162.883 94.44 161.306 91.1766 160.206 87.51C159.179 83.8433 158.666 80.03 158.666 76.07C158.666 72.2566 159.179 68.59 160.206 65.07C161.306 61.4766 162.883 58.3233 164.936 55.61C167.063 52.8966 169.703 50.7333 172.856 49.12C176.009 47.4333 179.676 46.59 183.856 46.59C187.229 46.59 190.419 47.3233 193.426 48.79C196.506 50.1833 198.926 52.2733 200.686 55.06H200.906V26.46H216.526V105H201.676V97.74Z" fill="#1486AD"/><path d="M264.412 70.46C263.679 66.5 262.359 63.4933 260.452 61.44C258.619 59.3866 255.795 58.36 251.982 58.36C249.489 58.36 247.399 58.8 245.712 59.68C244.099 60.4866 242.779 61.5133 241.752 62.76C240.799 64.0066 240.102 65.3266 239.662 66.72C239.295 68.1133 239.075 69.36 239.002 70.46H264.412ZM239.002 80.36C239.222 85.42 240.505 89.0866 242.852 91.36C245.199 93.6333 248.572 94.77 252.972 94.77C256.125 94.77 258.839 94 261.112 92.46C263.385 90.8466 264.779 89.16 265.292 87.4H279.042C276.842 94.22 273.469 99.0966 268.922 102.03C264.375 104.963 258.875 106.43 252.422 106.43C247.949 106.43 243.915 105.733 240.322 104.34C236.729 102.873 233.685 100.82 231.192 98.18C228.699 95.54 226.755 92.3866 225.362 88.72C224.042 85.0533 223.382 81.02 223.382 76.62C223.382 72.3666 224.079 68.4066 225.472 64.74C226.865 61.0733 228.845 57.92 231.412 55.28C233.979 52.5666 237.022 50.44 240.542 48.9C244.135 47.36 248.095 46.59 252.422 46.59C257.262 46.59 261.479 47.5433 265.072 49.45C268.665 51.2833 271.599 53.7766 273.872 56.93C276.219 60.0833 277.905 63.6766 278.932 67.71C279.959 71.7433 280.325 75.96 280.032 80.36H239.002Z" fill="#1486AD"/><path d="M325.816 68.15C324.79 61.6233 320.94 58.36 314.266 58.36C311.773 58.36 309.683 58.9466 307.996 60.12C306.31 61.22 304.916 62.6866 303.816 64.52C302.79 66.28 302.056 68.26 301.616 70.46C301.176 72.5866 300.956 74.7133 300.956 76.84C300.956 78.8933 301.176 80.9833 301.616 83.11C302.056 85.2366 302.753 87.18 303.706 88.94C304.733 90.6266 306.09 92.02 307.776 93.12C309.463 94.22 311.516 94.77 313.936 94.77C317.676 94.77 320.536 93.7433 322.516 91.69C324.57 89.5633 325.853 86.74 326.366 83.22H341.436C340.41 90.7733 337.476 96.53 332.636 100.49C327.796 104.45 321.6 106.43 314.046 106.43C309.793 106.43 305.87 105.733 302.276 104.34C298.756 102.873 295.749 100.857 293.256 98.29C290.763 95.7233 288.82 92.68 287.426 89.16C286.033 85.5666 285.336 81.6433 285.336 77.39C285.336 72.99 285.96 68.92 287.206 65.18C288.526 61.3666 290.433 58.1033 292.926 55.39C295.42 52.6033 298.463 50.44 302.056 48.9C305.65 47.36 309.756 46.59 314.376 46.59C317.75 46.59 320.976 47.03 324.056 47.91C327.21 48.79 329.996 50.1466 332.416 51.98C334.91 53.74 336.926 55.9766 338.466 58.69C340.006 61.33 340.886 64.4833 341.106 68.15H325.816Z" fill="#1486AD"/><path d="M361.92 76.62C361.92 78.8933 362.14 81.13 362.58 83.33C363.02 85.4566 363.754 87.4 364.78 89.16C365.88 90.8466 367.31 92.2033 369.07 93.23C370.83 94.2566 373.03 94.77 375.67 94.77C378.31 94.77 380.51 94.2566 382.27 93.23C384.104 92.2033 385.534 90.8466 386.56 89.16C387.66 87.4 388.43 85.4566 388.87 83.33C389.31 81.13 389.53 78.8933 389.53 76.62C389.53 74.3466 389.31 72.11 388.87 69.91C388.43 67.71 387.66 65.7666 386.56 64.08C385.534 62.3933 384.104 61.0366 382.27 60.01C380.51 58.91 378.31 58.36 375.67 58.36C373.03 58.36 370.83 58.91 369.07 60.01C367.31 61.0366 365.88 62.3933 364.78 64.08C363.754 65.7666 363.02 67.71 362.58 69.91C362.14 72.11 361.92 74.3466 361.92 76.62ZM346.3 76.62C346.3 72.0733 346.997 67.9666 348.39 64.3C349.784 60.56 351.764 57.4066 354.33 54.84C356.897 52.2 359.977 50.1833 363.57 48.79C367.164 47.3233 371.197 46.59 375.67 46.59C380.144 46.59 384.177 47.3233 387.77 48.79C391.437 50.1833 394.554 52.2 397.12 54.84C399.687 57.4066 401.667 60.56 403.06 64.3C404.454 67.9666 405.15 72.0733 405.15 76.62C405.15 81.1666 404.454 85.2733 403.06 88.94C401.667 92.6066 399.687 95.76 397.12 98.4C394.554 100.967 391.437 102.947 387.77 104.34C384.177 105.733 380.144 106.43 375.67 106.43C371.197 106.43 367.164 105.733 363.57 104.34C359.977 102.947 356.897 100.967 354.33 98.4C351.764 95.76 349.784 92.6066 348.39 88.94C346.997 85.2733 346.3 81.1666 346.3 76.62Z" fill="#1486AD"/><path d="M413.546 48.13H428.286V55.83H428.506C430.56 52.8966 433.016 50.6233 435.876 49.01C438.81 47.3966 442.146 46.59 445.886 46.59C449.48 46.59 452.743 47.2866 455.676 48.68C458.683 50.0733 460.956 52.53 462.496 56.05C464.183 53.5566 466.456 51.3566 469.316 49.45C472.25 47.5433 475.696 46.59 479.656 46.59C482.663 46.59 485.45 46.9566 488.016 47.69C490.583 48.4233 492.783 49.5966 494.616 51.21C496.45 52.8233 497.88 54.95 498.906 57.59C499.933 60.1566 500.446 63.2733 500.446 66.94V105H484.826V72.77C484.826 70.8633 484.753 69.0666 484.606 67.38C484.46 65.6933 484.056 64.2266 483.396 62.98C482.736 61.7333 481.746 60.7433 480.426 60.01C479.18 59.2766 477.456 58.91 475.256 58.91C473.056 58.91 471.26 59.35 469.866 60.23C468.546 61.0366 467.483 62.1366 466.676 63.53C465.943 64.85 465.43 66.39 465.136 68.15C464.916 69.8366 464.806 71.56 464.806 73.32V105H449.186V73.1C449.186 71.4133 449.15 69.7633 449.076 68.15C449.003 66.4633 448.673 64.9233 448.086 63.53C447.573 62.1366 446.656 61.0366 445.336 60.23C444.09 59.35 442.22 58.91 439.726 58.91C438.993 58.91 438.003 59.0933 436.756 59.46C435.583 59.7533 434.41 60.3766 433.236 61.33C432.136 62.21 431.183 63.53 430.376 65.29C429.57 66.9766 429.166 69.2133 429.166 72V105H413.546V48.13Z" fill="#1486AD"/></svg>