<svg width="94" height="19" viewBox="0 0 94 19" fill="none" xmlns="http://www.w3.org/2000/svg">
<path d="M7.83 1.598C9.558 1.598 10.962 3.29 11.952 5.576H11.988L11.88 1.22C11.466 1.562 11.178 1.742 10.692 1.742C10.098 1.742 9.162 1.22 7.416 1.22C3.636 1.22 0.432 3.83 0.432 7.772C0.432 11.678 3.15 14.18 7.11 14.18C8.712 14.18 10.278 13.478 11.196 12.488L12.78 14.18H12.816V10.238C12.816 9.05 12.996 8.672 13.788 8.114V8.078H8.172V8.114C8.964 8.672 9.144 9.05 9.144 10.238V11.354C9.144 12.884 8.424 13.784 7.146 13.784C5.418 13.784 4.518 11.138 4.518 7.772C4.518 4.046 5.688 1.598 7.83 1.598ZM18.619 0.518H13.957V0.553999C14.803 0.985999 15.019 1.274 15.019 2.516V12.038C15.019 13.226 14.983 13.424 14.227 13.964V14H19.411V13.964C18.655 13.424 18.619 13.226 18.619 12.038V0.518ZM24.2654 15.476C23.9054 16.286 23.4734 16.664 22.7894 16.664C22.1954 16.664 21.7454 16.232 21.7454 15.656C21.7454 15.242 21.9074 14.99 22.1954 14.81C22.0334 14.756 21.9074 14.738 21.7094 14.738C20.8094 14.738 20.0894 15.332 20.0894 16.358C20.0894 17.474 20.9174 18.104 21.9974 18.104C23.1314 18.104 23.8874 17.42 24.4814 15.944L28.1534 7.052C28.6214 5.936 28.9274 5.594 29.5394 5.09V5.054H26.7854V5.09C27.3614 5.306 27.7574 5.72 27.7574 6.35C27.7574 6.602 27.7034 6.854 27.5774 7.16L26.1734 10.652L24.3554 6.89C24.1934 6.548 24.1034 6.188 24.1034 5.9C24.1034 5.54 24.2114 5.324 24.5894 5.09V5.054H19.2794V5.09C19.8734 5.666 20.0534 5.918 20.6114 6.998L24.5894 14.756L24.2654 15.476ZM34.3219 5.18C35.1139 5.18 35.5459 5.702 35.5459 6.566C35.5459 7.286 35.2939 7.898 34.6099 7.898C34.5199 7.898 34.3759 7.88 34.2679 7.826C34.3399 8.384 34.9159 8.924 35.9419 8.924C36.8419 8.924 37.7239 8.366 37.7239 7.232C37.7239 5.666 36.2119 4.874 34.2679 4.874C31.2619 4.874 28.9579 6.656 28.9579 9.698C28.9579 12.488 31.1179 14.18 33.6739 14.18C35.6899 14.18 37.3639 13.064 37.9039 11.156L37.7779 11.102C37.2199 12.128 36.3379 12.542 35.4019 12.542C33.7099 12.542 32.6839 11.264 32.6839 8.798C32.6839 6.764 33.1519 5.18 34.3219 5.18ZM48.9261 13.298C48.8001 13.334 48.6561 13.334 48.5481 13.334C47.6301 13.334 47.5401 12.668 47.5401 11.444C47.5401 10.112 47.5761 9.032 47.5761 8.042C47.5761 5.774 46.0101 4.874 42.9141 4.874C40.5741 4.874 38.9541 5.738 38.9541 7.178C38.9541 8.132 39.7821 8.726 40.7721 8.726C41.7261 8.726 42.4821 8.366 42.8961 7.61C42.7701 7.646 42.6441 7.664 42.5361 7.664C41.9781 7.664 41.6541 7.304 41.6541 6.53C41.6541 5.774 42.0861 5.198 42.8241 5.198C43.7421 5.198 44.0121 6.044 44.0121 6.872V8.78L42.6441 9.032C40.4841 9.428 38.5041 9.806 38.5041 11.858C38.5041 13.406 39.7821 14.126 41.1861 14.126C42.7161 14.126 43.7421 13.388 44.0661 12.182C44.0661 12.236 44.0841 12.488 44.1021 12.56C44.2821 13.55 45.0381 14.18 46.6221 14.18C47.5221 14.18 48.4401 13.838 48.9261 13.334V13.298ZM44.0121 9.104V11.102C43.9941 11.984 43.6701 12.794 42.8961 12.794C42.2481 12.794 41.9601 12.182 41.9601 11.318C41.9601 10.184 42.3561 9.482 43.3641 9.266L44.0121 9.104ZM48.7668 5.054V5.09C49.5948 5.612 49.6848 5.792 49.6848 7.052V12.038C49.6848 13.226 49.6488 13.424 48.8928 13.964V14H54.0768V13.964C53.3208 13.424 53.2848 13.226 53.2848 12.038V8.69C53.2848 7.16 53.8248 6.548 54.5988 6.548C55.3188 6.548 55.6608 7.106 55.6608 7.826V12.038C55.6608 13.226 55.6248 13.424 54.8688 13.964V14H60.0528V13.964C59.2968 13.424 59.2608 13.226 59.2608 12.038V7.988C59.2608 6.314 58.4148 4.874 56.3988 4.874C54.8688 4.874 53.7168 5.756 53.2848 7.358V5.054H48.7668ZM65.3158 5.846L67.2238 9.86H63.4798L65.3158 5.846ZM63.4618 13.964C62.7598 13.64 62.4358 13.154 62.4358 12.578C62.4358 12.272 62.5258 11.984 62.6518 11.678L63.2278 10.4H67.4938L68.2138 11.93C68.3938 12.308 68.4838 12.596 68.4838 12.938C68.4838 13.352 68.2678 13.64 67.7458 13.964V14H73.8658V13.964C73.2538 13.514 72.9478 13.082 72.4078 11.984L67.0618 1.22H66.9898L61.9318 11.84C61.4098 12.938 60.9058 13.514 60.2578 13.964V14H63.4618V13.964ZM78.7773 5.162C79.3893 5.162 79.6053 6.026 79.6053 7.826C79.6053 9.644 79.3893 10.49 78.7773 10.49C78.1833 10.49 77.9673 9.644 77.9673 7.826C77.9673 6.026 78.1833 5.162 78.7773 5.162ZM84.3033 14.504C84.3033 12.722 82.8813 11.804 80.7753 11.804H76.6353C76.1493 11.804 75.8973 11.57 75.8973 11.192C75.8973 10.832 76.1673 10.616 76.6173 10.454C77.2293 10.67 77.9313 10.778 78.7773 10.778C81.4953 10.778 83.0253 9.572 83.0253 7.826C83.0253 6.944 82.6113 6.206 81.8373 5.702C82.0533 5.504 82.2873 5.36 82.6293 5.36C83.2953 5.36 83.5833 5.828 83.5833 6.35C83.5833 6.584 83.5113 6.782 83.4033 6.962V6.998C84.1593 6.998 85.0773 6.62 85.0773 5.522C85.0773 4.658 84.4833 4.1 83.4933 4.1C82.5033 4.1 82.0173 4.928 81.6393 5.558C80.9373 5.108 79.9653 4.874 78.7773 4.874C76.0773 4.874 74.5473 6.098 74.5473 7.826C74.5473 8.924 75.1593 9.842 76.3293 10.328C75.1953 10.688 74.2413 11.552 74.2413 12.776C74.2413 13.946 75.0153 14.738 76.1313 15.008C74.6553 15.044 73.9173 15.602 73.9173 16.286C73.9173 17.708 76.2933 18.086 78.4713 18.086C81.4593 18.086 84.3033 17.024 84.3033 14.504ZM78.4713 17.78C76.9413 17.78 75.6633 17.33 75.6633 16.25C75.6633 15.44 76.2573 15.098 77.1213 15.098H80.3433C81.3153 15.098 81.8553 15.404 81.8553 16.16C81.8553 17.258 80.2893 17.78 78.4713 17.78ZM89.5929 4.874C86.9469 4.874 84.7509 6.674 84.7509 9.536C84.7509 12.488 86.9109 14.18 89.5569 14.18C91.6089 14.18 93.2829 13.064 93.8409 11.156L93.7329 11.102C93.1569 12.128 92.2569 12.542 91.2129 12.542C89.5569 12.542 88.3869 11.318 88.3869 9.104H93.9669C93.9669 6.764 92.5629 4.874 89.5929 4.874ZM88.3869 8.744C88.4229 6.62 88.7469 5.18 89.5929 5.18C90.4569 5.18 90.5649 6.674 90.5649 8.744H88.3869Z" fill="#09341F"/>
</svg>
