<svg width="734" height="667" viewBox="0 0 734 667" fill="none" xmlns="http://www.w3.org/2000/svg">
<path d="M334.144 85.3964L334.148 85.4029L362.482 128.736L366.667 135.137L370.852 128.736L399.185 85.4029L399.189 85.3964C431.906 35.1866 488.308 5 550 5C648.409 5 728.333 82.2618 728.333 177C728.333 224.483 710.791 274.765 682.836 324.66C654.904 374.515 616.767 423.645 576.04 468.732C496.612 556.66 407.735 628.771 366.681 660.354C325.769 628.595 236.889 556.244 157.419 468.232C116.669 423.102 78.5006 373.971 50.5418 324.187C22.5591 274.361 5 224.227 5 177C5 82.2618 84.9247 5 183.333 5C245.025 5 301.427 35.1866 334.144 85.3964Z" stroke="black" stroke-width="10"/>
</svg>
