<svg width="18" height="20" viewBox="0 0 18 20" fill="none" xmlns="http://www.w3.org/2000/svg">
<path d="M11.94 3.19C12.3181 2.75428 12.6063 2.24817 12.7882 1.70074C12.9701 1.1533 13.0421 0.575328 13 0C11.8394 0.093687 10.762 0.639556 10 1.52C9.63513 1.94198 9.35861 2.43288 9.18684 2.96364C9.01507 3.49441 8.95155 4.05424 9.00003 4.61C9.56618 4.61472 10.1258 4.4891 10.6356 4.24286C11.1454 3.99662 11.5918 3.63637 11.94 3.19ZM14.46 10.63C14.4667 9.86374 14.6686 9.11182 15.0465 8.4452C15.4244 7.77859 15.966 7.21926 16.62 6.82C16.2073 6.22524 15.6616 5.73483 15.0263 5.38767C14.391 5.04052 13.6835 4.84615 12.96 4.82C11.4 4.66 9.96003 5.73 9.13003 5.73C8.30003 5.73 7.13003 4.84 5.83003 4.86C4.98016 4.888 4.15205 5.13578 3.42648 5.57919C2.70091 6.02259 2.10264 6.64648 1.69003 7.39C-0.0699663 10.45 1.24003 15 3.00003 17.47C3.80003 18.68 4.80003 20.05 6.12003 20C7.44003 19.95 7.87003 19.18 9.40003 19.18C10.93 19.18 11.4 20 12.7 19.97C14 19.94 14.92 18.73 15.76 17.52C16.3551 16.6415 16.8199 15.6816 17.14 14.67C16.3475 14.332 15.6714 13.7693 15.1951 13.0513C14.7188 12.3333 14.4633 11.4916 14.46 10.63Z" fill="black"/>
</svg>
